<?xml version="1.0" standalone="no"?>
<!DOCTYPE svg PUBLIC "-//W3C//DTD SVG 20010904//EN"
 "http://www.w3.org/TR/2001/REC-SVG-20010904/DTD/svg10.dtd">
<svg version="1.0" xmlns="http://www.w3.org/2000/svg"
 width="500.000000pt" height="500.000000pt" viewBox="0 0 500.000000 500.000000"
 preserveAspectRatio="xMidYMid meet">
<metadata>
Created by potrace 1.11, written by Peter Selinger 2001-2013
</metadata>
<g transform="translate(0.000000,500.000000) scale(0.100000,-0.100000)"
fill="#000000" stroke="none">
<path d="M3439 4312 c-51 -25 -107 -98 -116 -150 -11 -74 -6 -169 16 -299 12
-67 21 -136 21 -154 l0 -32 -72 69 c-329 316 -786 482 -1318 478 -246 -1 -527
-83 -777 -226 -230 -131 -494 -376 -634 -587 -114 -173 -215 -423 -259 -647
-24 -121 -36 -404 -21 -484 5 -25 12 -64 16 -87 28 -193 120 -410 264 -623 80
-118 85 -128 87 -185 4 -89 8 -97 75 -149 55 -43 65 -47 98 -41 35 6 39 4 64
-34 15 -22 34 -68 44 -102 16 -59 20 -63 85 -107 70 -46 84 -65 120 -162 37
-98 70 -122 131 -91 23 11 58 23 77 26 40 6 68 28 90 69 26 49 42 53 102 24
60 -29 81 -34 203 -53 22 -3 67 -13 100 -22 90 -24 394 -20 570 8 157 24 348
85 485 154 143 72 326 207 422 312 25 26 79 85 121 130 94 102 180 231 252
380 32 65 61 113 68 110 6 -2 21 -31 33 -64 45 -126 144 -241 226 -263 82 -23
191 8 237 66 36 46 71 128 78 182 3 29 8 52 10 52 2 0 17 -7 33 -15 36 -19 62
-10 113 41 51 50 65 79 72 150 7 67 14 76 70 92 31 9 49 23 73 57 31 44 32 49
32 148 -1 112 -5 124 -60 152 -46 23 -50 30 -50 93 0 86 -48 172 -95 172 -12
0 -34 -9 -48 -20 -32 -25 -49 -25 -65 0 -7 11 -22 20 -35 20 -42 0 -50 15 -87
155 -11 44 -38 123 -60 175 -21 52 -47 127 -59 166 -27 90 -59 121 -135 126
-21 1 -39 5 -41 9 -6 8 31 26 82 39 75 19 93 53 93 179 1 39 9 89 20 121 35
100 30 123 -53 226 -39 50 -83 106 -97 125 -14 18 -41 51 -61 73 -35 38 -40
40 -95 40 -33 0 -75 -4 -94 -7 -101 -20 -92 -25 -146 80 -27 53 -55 102 -62
110 -18 18 -101 15 -143 -5z m-1149 -137 c370 -49 703 -207 964 -456 82 -78
108 -110 116 -140 18 -67 110 -250 170 -340 45 -66 57 -91 53 -112 -4 -21 3
-36 30 -66 37 -41 39 -49 51 -203 5 -61 15 -86 41 -108 54 -45 69 -146 36
-240 -23 -65 -27 -112 -17 -201 8 -62 6 -72 -33 -171 -23 -59 -44 -115 -46
-126 -2 -12 10 -48 27 -80 l31 -60 -52 -107 c-61 -127 -114 -211 -200 -317
l-62 -78 -48 47 -48 47 23 19 c17 13 32 16 58 12 61 -12 127 38 181 137 22 41
30 69 33 130 8 134 -35 228 -103 228 -34 0 -49 17 -39 45 12 31 -8 86 -58 161
-41 59 -52 84 -51 113 1 20 2 62 3 93 2 71 -30 134 -86 167 -20 12 -34 27 -31
34 10 26 26 124 31 192 3 39 13 100 22 136 16 62 16 69 -1 123 -10 33 -33 74
-55 99 -33 37 -42 41 -81 41 -24 -1 -62 -4 -85 -9 -38 -7 -42 -5 -78 33 -39
40 -74 60 -156 84 -32 9 -51 23 -67 48 -44 66 -62 80 -107 80 -78 0 -160 -33
-216 -86 -19 -18 -48 -36 -65 -39 -29 -6 -28 -5 20 39 l50 46 -40 -6 c-58 -10
-82 -20 -147 -65 -64 -43 -80 -49 -53 -19 31 35 -8 36 -57 2 -72 -50 -178
-169 -178 -200 0 -22 -42 -45 -80 -44 -33 2 -47 -4 -80 -34 -21 -19 -42 -44
-45 -55 -8 -26 -17 -19 -45 36 -28 55 -82 105 -112 105 -38 0 -84 -41 -139
-123 -49 -74 -96 -117 -126 -117 -24 0 -13 22 47 92 33 38 60 75 60 82 0 92
-293 -22 -313 -121 -3 -15 -26 -55 -50 -88 -25 -33 -50 -79 -56 -103 -7 -23
-25 -58 -42 -76 -24 -28 -29 -40 -24 -68 8 -47 25 -88 52 -125 l23 -32 -31
-31 c-29 -29 -31 -35 -27 -85 3 -38 14 -70 36 -105 46 -74 27 -89 -61 -50 -58
26 -97 27 -168 7 -44 -13 -65 -26 -92 -59 -69 -81 -76 -88 -101 -88 -36 0 -95
-56 -120 -113 l-22 -48 -36 103 c-69 190 -88 314 -83 523 5 177 8 207 36 345
38 190 106 356 225 546 99 161 227 303 364 409 76 58 269 183 360 233 149 81
353 146 500 159 36 3 67 7 70 10 10 9 310 0 400 -12z m425 -1795 c3 -5 1 -10
-4 -10 -6 0 -11 5 -11 10 0 6 2 10 4 10 3 0 8 -4 11 -10z"/>
</g>
</svg>
